<?xml version="1.0" encoding="iso-8859-1"?>
<!-- Generator: Adobe Illustrator 19.1.0, SVG Export Plug-In . SVG Version: 6.00 Build 0)  -->
<svg version="1.1" id="iOS_preciseToolControl_56_lt-ou"
	 xmlns="http://www.w3.org/2000/svg" xmlns:xlink="http://www.w3.org/1999/xlink" x="0px" y="0px"  width="56" height="56"
	 viewBox="0 0 56 56"
	 enable-background="new 0 0 56 56" xml:space="preserve">
<g>
	<circle fill="#999999" cx="31" cy="47" r="3"/>
</g>
<g>
	<circle fill="#999999" cx="21" cy="41" r="3"/>
</g>
<g>
	<path fill="#999999" d="M27.3672,21.1211c1.515,1.4138,2.1721,2.1101,2.4567,2.4492c-0.3902,2.014-1.5225,4.444-5.9701,4.444
		c-2.5761,0-4.545-0.5042-6.1893-1.6328c0.8748-0.165,1.8694-0.4803,2.8881-1.0544l0.1612-0.0908l0.1394-0.1218
		c0.4178-0.365,0.8036-0.8075,1.1771-1.236c1.0881-1.2472,2.1159-2.4252,4.2071-2.677l0.0895-0.0137l0.0479-0.0084
		C26.385,21.1776,26.5995,21.1415,27.3672,21.1211 M28.0604,19.3091l-0.2518,0.0031c-0.6415,0.0087-1.4485,0.0332-1.7865,0.1022
		c-2.7784,0.3347-4.2033,1.9686-5.3492,3.2819c-0.3492,0.4006-0.68,0.7797-1.004,1.0627c-1.4494,0.8168-2.8359,0.9857-3.7354,0.9857
		c-0.6281,0-1.0186-0.0824-1.0274-0.0841l-1.816-0.4148l1.1914,1.432c2.3754,2.8551,5.3541,4.1366,9.5723,4.1366
		c0.0103,0,0.0201,0,0.0305,0c2.993,0,6.9517-1.0126,7.7859-6.3557c0.0852-0.3508,0.18-0.6425-3.4252-3.979L28.0604,19.3091
		L28.0604,19.3091z"/>
</g>
<g>
	<g>
		<path fill="#999999" d="M42.0422,7.0215c-1.0079,1.3877-3.153,4.2422-9.603,12.4862l-1.3349-1.3231
			C38.3033,10.7145,40.8145,8.2079,42.0422,7.0215 M43.5782,3.8333c-0.7994,0-1.4752,0.6433-1.5285,0.6951
			c-1.1901,1.1525-1.6589,1.4196-12.7248,12.9088l-0.7541,0.7705l4.0123,3.9772l0.9202-1.1169
			C43.3358,8.507,43.5349,8.0055,44.51,6.6663c0.0604-0.0829,1.0695-1.4949,0.0033-2.4885
			C44.202,3.9257,43.8812,3.8333,43.5782,3.8333L43.5782,3.8333z"/>
	</g>
</g>
<g>
	<circle fill="#999999" cx="35" cy="35" r="3"/>
</g>
<path fill="#999999" d="M30,35c0-0.3425,0.0352-0.6768,0.1008-1H13c-0.5523,0-1,0.4478-1,1s0.4477,1,1,1h17.1008
	C30.0352,35.6768,30,35.3425,30,35z"/>
<path fill="#999999" d="M43,34h-3.1008C39.9648,34.3232,40,34.6575,40,35s-0.0352,0.6768-0.1008,1H43c0.5523,0,1-0.4478,1-1
	S43.5523,34,43,34z"/>
<path fill="#999999" d="M16,41c0-0.3425,0.0352-0.6768,0.1008-1H13c-0.5523,0-1,0.4478-1,1s0.4477,1,1,1h3.1008
	C16.0352,41.6768,16,41.3425,16,41z"/>
<path fill="#999999" d="M43,40H25.8992C25.9648,40.3232,26,40.6575,26,41s-0.0352,0.6768-0.1008,1H43c0.5523,0,1-0.4478,1-1
	S43.5523,40,43,40z"/>
<path fill="#999999" d="M43,46h-7.1008C35.9648,46.3232,36,46.6575,36,47s-0.0352,0.6768-0.1008,1H43c0.5523,0,1-0.4478,1-1
	S43.5523,46,43,46z"/>
<path fill="#999999" d="M26,47c0-0.3425,0.0352-0.6768,0.1008-1H13c-0.5523,0-1,0.4478-1,1s0.4477,1,1,1h13.1008
	C26.0352,47.6768,26,47.3425,26,47z"/>
</svg>
